<?xml version="1.0" encoding="UTF-8"?>
<svg id="b" data-name="design" xmlns="http://www.w3.org/2000/svg" width="972.66562mm" height="202.07735mm" viewBox="0 0 2757.16243 572.81768">
  <defs>
    <style>
      .c {
        fill: #58727f;
      }

      .d {
        fill: #d3a284;
      }

      .e {
        fill: #83afa6;
      }
    </style>
  </defs>
  <path class="c" d="m181.55577,487.42317c-21.07327,0-39.68199-3.77297-55.81925-11.31892-16.13725-7.54595-28.75768-18.34565-37.86127-32.39912-9.11744-14.05346-13.66578-30.96608-13.66578-50.74477v-10.93124h50.74477v10.93124c0,16.3934,5.07448,28.68845,15.22343,36.88515,10.15588,8.1967,23.94627,12.30197,41.3781,12.30197,17.6949,0,30.90377-3.51683,39.62661-10.54356,8.71592-7.02673,13.07734-16.00572,13.07734-26.93696,0-7.53903-2.1461-13.65886-6.44521-18.34565-4.29219-4.67987-10.53664-8.52208-18.73334-11.51276-8.1967-2.99069-18.15181-5.78753-29.86534-8.39054l-8.97899-1.95225c-18.73334-4.16066-34.80828-9.42897-48.20407-15.81188-13.40963-6.37598-23.69012-14.76652-30.84147-25.17854-7.15827-10.4051-10.7374-23.93935-10.7374-40.59582,0-16.64955,3.96681-30.90377,11.90737-42.74883,7.93363-11.83814,19.12794-20.94174,33.56908-27.32464,14.44807-6.36906,31.42991-9.56051,50.94553-9.56051s36.88515,3.31606,52.10858,9.95511c15.23035,6.63213,27.1931,16.52493,35.91594,29.66458,8.71592,13.14656,13.07734,29.60919,13.07734,49.38096v11.71353h-50.74477v-11.71353c0-10.4051-2.02148-18.79564-6.0506-25.17854-4.04297-6.37598-9.8305-11.05585-17.36953-14.05346-7.55287-2.99069-16.53186-4.48603-26.93696-4.48603-15.61804,0-27.1308,2.92838-34.54521,8.77822-7.42134,5.85676-11.12508,13.85962-11.12508,24.00858,0,6.77058,1.75149,12.49581,5.26832,17.17569,3.5099,4.6868,8.78514,8.5913,15.80495,11.71353,7.02673,3.12222,16.00572,5.85676,26.93696,8.1967l8.97899,1.95225c19.51562,4.16758,36.49747,9.50513,50.94553,16.00572,14.44114,6.50751,25.69084,15.0919,33.76293,25.76007,8.06516,10.67509,12.10121,24.34087,12.10121,40.99042,0,16.65647-4.22988,31.29838-12.68965,43.91188-8.45977,12.62735-20.42944,22.51323-35.90902,29.6715-15.4865,7.15134-33.76985,10.73048-54.85004,10.73048Z"/>
  <path class="c" d="m313.49909,481.96101V208.7077h175.66136v46.84718h-124.13431v65.18591h113.20307v46.84718h-113.20307v67.53277h126.47424v46.84026h-178.0013Z"/>
  <path class="c" d="m519.995,481.96101V208.7077h175.66136v46.84718h-124.13431v65.18591h113.20307v46.84718h-113.20307v67.53277h126.47424v46.84026h-178.0013Z"/>
  <path class="c" d="m726.48398,481.96101V208.7077h51.52706v108.52319h7.02673l88.60604-108.52319h65.97512l-113.98535,134.67786,117.88986,138.57545h-67.92738l-90.5583-110.86313h-7.02673v110.86313h-51.52706Z"/>
  <path class="c" d="m1065.31089,487.42317c-32.53757,0-58.42918-9.42897-77.68173-28.30077-19.2664-18.86487-28.88921-46.38335-28.88921-82.55544v-62.4583c0-36.17209,9.62281-63.69057,28.88921-82.56236,19.25255-18.86487,45.14415-28.30077,77.68173-28.30077,32.26066,0,57.05152,8.97899,74.35874,26.93696,17.30722,17.95105,25.96083,42.54807,25.96083,73.77722v1.95225h-32.39912v-3.12222c0-20.56098-5.53139-37.41129-16.58724-50.55785-11.0697-13.13272-28.17615-19.70946-51.33322-19.70946-23.16398,0-41.25349,7.09596-54.2616,21.27404-13.01503,14.185-19.51562,34.02599-19.51562,59.52991v64.01595c0,25.51084,6.50059,45.35184,19.51562,59.52991,13.00811,14.19192,31.09761,21.27404,54.2616,21.27404,23.15706,0,40.26352-6.5629,51.33322-19.70946,11.05585-13.13964,16.58724-29.98995,16.58724-50.55093v-6.24445h32.39912v5.07448c0,31.22915-8.65361,55.81925-25.96083,73.77722-17.30722,17.95797-42.09808,26.93003-74.35874,26.93003Z"/>
  <path class="c" d="m1440.05374,481.96101v-190.88479h30.05918v23.80781h5.46216c3.64144-6.76366,9.62974-13.00811,17.95797-18.73334,8.32823-5.71831,20.03484-8.5913,35.13366-8.5913,14.83575,0,26.86773,3.26068,36.10978,9.76127,9.23513,6.50751,15.93649,14.44114,20.10407,23.81474h5.46216c4.42373-9.37359,11.12508-17.30722,20.10407-23.81474,8.97899-6.50059,21.53018-9.76127,37.66743-9.76127,12.75196,0,23.93935,2.60993,33.56908,7.80902,9.62974,5.21293,17.23799,12.68965,22.83861,22.444,5.59369,9.76127,8.39054,21.41249,8.39054,34.93982v129.20878h-30.83454v-126.47424c0-12.75196-3.71067-22.83861-11.12508-30.25302-7.42134-7.42134-17.76413-11.12508-31.03531-11.12508-14.05346,0-25.56623,4.55526-34.54521,13.65886-8.97899,9.11744-13.46502,22.25016-13.46502,39.42585v114.76764h-30.84147v-126.47424c0-12.75196-3.71067-22.83861-11.12508-30.25302-7.41441-7.42134-17.76413-11.12508-31.03531-11.12508-14.05346,0-25.56623,4.55526-34.54521,13.65886-8.97899,9.11744-13.46502,22.25016-13.46502,39.42585v114.76764h-30.84147Z"/>
  <path class="c" d="m1765.99716,481.96101v-190.88479h30.05918v23.80781h5.46216c3.64144-6.76366,9.62974-13.00811,17.95797-18.73334,8.32823-5.71831,20.03484-8.5913,35.13366-8.5913,14.83575,0,26.86773,3.26068,36.10978,9.76127,9.23513,6.50751,15.93649,14.44114,20.10407,23.81474h5.46216c4.42373-9.37359,11.12508-17.30722,20.10407-23.81474,8.97899-6.50059,21.53018-9.76127,37.66743-9.76127,12.75196,0,23.93935,2.60993,33.56908,7.80902,9.62974,5.21293,17.23799,12.68965,22.83861,22.444,5.59369,9.76127,8.39054,21.41249,8.39054,34.93982v129.20878h-30.83454v-126.47424c0-12.75196-3.71067-22.83861-11.12508-30.25302-7.42134-7.42134-17.76413-11.12508-31.03531-11.12508-14.05346,0-25.56623,4.55526-34.54521,13.65886-8.97899,9.11744-13.46502,22.25016-13.46502,39.42585v114.76764h-30.84147v-126.47424c0-12.75196-3.71067-22.83861-11.12508-30.25302-7.41441-7.42134-17.76413-11.12508-31.03531-11.12508-14.05346,0-25.56623,4.55526-34.54521,13.65886-8.97899,9.11744-13.46502,22.25016-13.46502,39.42585v114.76764h-30.84147Z"/>
  <path class="c" d="m2323.42119,481.96101v-190.88479h30.05918v32.39912h5.46908c4.15373-9.1036,11.24277-17.36953,21.26711-24.79086,10.02434-7.41441,24.78394-11.12508,44.30648-11.12508,14.31653,0,27.13772,2.99761,38.44972,8.97899,11.32584,5.99522,20.36714,14.83575,27.13772,26.54928,6.75674,11.7066,10.14895,26.15467,10.14895,43.33036v115.543h-30.84839v-113.20307c0-18.9964-4.7491-32.79372-14.2473-41.3781-9.4982-8.5913-22.31939-12.88349-38.44972-12.88349-18.48411,0-33.50678,5.9883-45.08185,17.95797-11.58891,11.96967-17.37645,29.80303-17.37645,53.47931v96.02738h-30.83454Z"/>
  <path class="c" d="m2629.84206,487.42317c-23.67628,0-43.65573-5.46216-59.92452-16.3934-16.25494-10.93124-26.08544-28.23154-29.46381-51.91474l29.26997-6.63905c2.09071,12.49581,5.99522,22.31939,11.71353,29.47073,5.71831,7.16519,12.82119,12.23967,21.28096,15.22343,8.44592,2.99761,17.50106,4.49295,27.12388,4.49295,14.31653,0,25.62853-2.85915,33.96369-8.5913,8.32131-5.71831,12.48889-13.39579,12.48889-23.02553,0-9.89281-3.97374-16.85031-11.90737-20.88635-7.93363-4.02912-18.80256-7.35211-32.59296-9.95511l-16.00572-2.73454c-12.23967-2.07687-23.41321-5.33062-33.56216-9.75435-10.14895-4.42373-18.22104-10.4051-24.20242-17.95797-5.99522-7.54595-8.98591-17.04415-8.98591-28.49461,0-17.17569,6.63213-30.5784,19.91023-40.20813,13.2781-9.62281,30.83454-14.44807,52.69702-14.44807,21.59941,0,39.10047,4.88064,52.50318,14.64191,13.40271,9.76127,22.05632,23.48936,25.96083,41.18426l-28.88229,7.41441c-2.35378-13.79039-7.94748-23.48244-16.79493-29.08305-8.84745-5.59369-19.77177-8.39054-32.7868-8.39054s-23.2886,2.40917-30.83454,7.22057c-7.55979,4.81833-11.32584,11.90737-11.32584,21.27404,0,9.11744,3.57221,15.81188,10.74432,20.10407,7.14442,4.29219,16.71185,7.48364,28.68845,9.56743l16.00572,2.72762c13.52732,2.34686,25.69776,5.53139,36.49747,9.56743,10.78586,4.03604,19.38409,9.82358,25.75314,17.36953,6.3829,7.55287,9.56743,17.43876,9.56743,29.66458,0,18.74026-6.96443,33.1814-20.87943,43.33036-13.92885,10.14895-32.59296,15.22343-56.02001,15.22343Z"/>
  <path class="c" d="m1296.50074,488.9739c-56.12385,0-101.78722-45.66337-101.78722-101.78722s45.66337-101.78722,101.78722-101.78722,101.78722,45.66337,101.78722,101.78722-45.66337,101.78722-101.78722,101.78722Zm0-175.2183c-40.49197,0-73.43107,32.9391-73.43107,73.43107s32.9391,73.43107,73.43107,73.43107,73.43107-32.9391,73.43107-73.43107-32.9391-73.43107-73.43107-73.43107Z"/>
  <circle class="c" cx="2181.13853" cy="387.18667" r="101.78722"/>
  <circle class="d" cx="1296.50074" cy="387.18667" r="46.86806"/>
  <circle class="e" cx="1498.83884" cy="179.73719" r="58.7851"/>
  <circle class="d" cx="1753.4182" cy="120.95209" r="68.78339"/>
  <circle class="e" cx="2024.70485" cy="173.23338" r="75.49239"/>
</svg>